<svg width="101" height="24" viewBox="0 0 101 24" fill="none" xmlns="http://www.w3.org/2000/svg">
<path d="M3 6H21M19 6V20C19 21 18 22 17 22H7C6 22 5 21 5 20V6M8 6V4C8 3 9 2 10 2H14C15 2 16 3 16 4V6M10 11V17M14 11V17" stroke="#B7B7B7" stroke-width="2" stroke-linecap="round" stroke-linejoin="round"/>
<path d="M35.088 17.5V6.3H39.2C40.096 6.3 40.832 6.45467 41.408 6.764C41.9947 7.06267 42.432 7.47333 42.72 7.996C43.008 8.508 43.152 9.07867 43.152 9.708C43.152 10.3907 42.9707 11.0147 42.608 11.58C42.256 12.1453 41.7013 12.556 40.944 12.812L43.264 17.5H40.912L38.832 13.084H37.136V17.5H35.088ZM37.136 11.58H39.072C39.7547 11.58 40.256 11.4147 40.576 11.084C40.896 10.7533 41.056 10.316 41.056 9.772C41.056 9.23867 40.896 8.812 40.576 8.492C40.2667 8.172 39.76 8.012 39.056 8.012H37.136V11.58ZM45.0568 17.5V6.3H52.3688V7.948H47.1048V11.02H51.8888V12.62H47.1048V15.852H52.3688V17.5H45.0568ZM54.3068 17.5V6.3H56.7388L60.3068 13.404L63.8268 6.3H66.2588V17.5H64.2108V9.772L61.0908 15.9H59.4748L56.3548 9.772V17.5H54.3068ZM73.6798 17.692C72.5598 17.692 71.5784 17.4467 70.7358 16.956C69.9038 16.4653 69.2478 15.788 68.7678 14.924C68.2984 14.0493 68.0638 13.0413 68.0638 11.9C68.0638 10.7587 68.2984 9.756 68.7678 8.892C69.2478 8.01733 69.9038 7.33467 70.7358 6.844C71.5784 6.35333 72.5598 6.108 73.6798 6.108C74.7891 6.108 75.7651 6.35333 76.6078 6.844C77.4504 7.33467 78.1064 8.01733 78.5758 8.892C79.0451 9.756 79.2798 10.7587 79.2798 11.9C79.2798 13.0413 79.0451 14.0493 78.5758 14.924C78.1064 15.788 77.4504 16.4653 76.6078 16.956C75.7651 17.4467 74.7891 17.692 73.6798 17.692ZM73.6798 15.852C74.7464 15.852 75.5944 15.5 76.2238 14.796C76.8638 14.092 77.1838 13.1267 77.1838 11.9C77.1838 10.6733 76.8638 9.708 76.2238 9.004C75.5944 8.3 74.7464 7.948 73.6798 7.948C72.6131 7.948 71.7598 8.3 71.1198 9.004C70.4798 9.708 70.1598 10.6733 70.1598 11.9C70.1598 13.1267 70.4798 14.092 71.1198 14.796C71.7598 15.5 72.6131 15.852 73.6798 15.852ZM83.961 17.5L79.865 6.3H82.057L85.225 15.404L88.409 6.3H90.569L86.473 17.5H83.961ZM91.9005 17.5V6.3H99.2125V7.948H93.9485V11.02H98.7325V12.62H93.9485V15.852H99.2125V17.5H91.9005Z" fill="#B7B7B7"/>
</svg>
